<mxfile modified="2019-11-16T00:36:24.749Z" host="www.draw.io" agent="Mozilla/5.0 (Macintosh; Intel Mac OS X 10_12_6) AppleWebKit/537.36 (KHTML, like Gecko) Chrome/77.0.3865.90 Safari/537.36" etag="GN6biILwBZlWzoOJyuGS" version="12.2.6" type="github" pages="3">
  <diagram id="x-GXoumUO5DQMGYrBul2" name="Original">
    <mxGraphModel dx="786" dy="519" grid="1" gridSize="10" guides="1" tooltips="1" connect="1" arrows="1" fold="1" page="1" pageScale="1" pageWidth="827" pageHeight="1169" math="0" shadow="0">
      <root>
        <mxCell id="0"/>
        <mxCell id="1" parent="0"/>
        <mxCell id="RN9INIxDvgJOFiBCgrXU-7" value="Editor/Librarian" style="shape=umlActor;verticalLabelPosition=bottom;labelBackgroundColor=#ffffff;verticalAlign=top;html=1;outlineConnect=0;" parent="1" vertex="1">
          <mxGeometry x="165" y="40.5" width="30" height="60" as="geometry"/>
        </mxCell>
        <mxCell id="RN9INIxDvgJOFiBCgrXU-9" value="CMS-like&lt;br&gt;Front End" style="rounded=0;whiteSpace=wrap;html=1;" parent="1" vertex="1">
          <mxGeometry x="130" y="181" width="100" height="50" as="geometry"/>
        </mxCell>
        <mxCell id="RN9INIxDvgJOFiBCgrXU-11" value="Service Integration Engine" style="rounded=0;whiteSpace=wrap;html=1;" parent="1" vertex="1">
          <mxGeometry x="353" y="371.5" width="120" height="60" as="geometry"/>
        </mxCell>
        <mxCell id="5JjlQ0Los4AuPIkOIIEd-3" value="&lt;span&gt;Linked Data Container&lt;/span&gt;" style="shape=cylinder;whiteSpace=wrap;html=1;boundedLbl=1;backgroundOutline=1;" parent="1" vertex="1">
          <mxGeometry x="173" y="311.5" width="90" height="60" as="geometry"/>
        </mxCell>
        <mxCell id="5JjlQ0Los4AuPIkOIIEd-4" value="&lt;span&gt;Integration&lt;br&gt;Configuration&lt;/span&gt;" style="shape=cylinder;whiteSpace=wrap;html=1;boundedLbl=1;backgroundOutline=1;" parent="1" vertex="1">
          <mxGeometry x="365" y="240.5" width="90" height="60" as="geometry"/>
        </mxCell>
        <mxCell id="5JjlQ0Los4AuPIkOIIEd-5" value="&lt;span&gt;Triple Store&lt;/span&gt;" style="shape=cylinder;whiteSpace=wrap;html=1;boundedLbl=1;backgroundOutline=1;" parent="1" vertex="1">
          <mxGeometry x="335.5" y="498" width="90" height="60" as="geometry"/>
        </mxCell>
        <mxCell id="5JjlQ0Los4AuPIkOIIEd-8" value="KG Search/Explore&lt;br&gt;Front End" style="rounded=0;whiteSpace=wrap;html=1;" parent="1" vertex="1">
          <mxGeometry x="154.5" y="634" width="127" height="50" as="geometry"/>
        </mxCell>
        <mxCell id="5JjlQ0Los4AuPIkOIIEd-11" value="Generic User" style="shape=umlActor;verticalLabelPosition=bottom;labelBackgroundColor=#ffffff;verticalAlign=top;html=1;outlineConnect=0;" parent="1" vertex="1">
          <mxGeometry x="173" y="770" width="30" height="60" as="geometry"/>
        </mxCell>
        <mxCell id="5JjlQ0Los4AuPIkOIIEd-12" value="Domain Expert (e.g., Researcher)" style="shape=umlActor;verticalLabelPosition=bottom;labelBackgroundColor=#ffffff;verticalAlign=top;html=1;outlineConnect=0;" parent="1" vertex="1">
          <mxGeometry x="407.5" y="770" width="30" height="60" as="geometry"/>
        </mxCell>
        <mxCell id="5JjlQ0Los4AuPIkOIIEd-15" value="PDFs&amp;nbsp;+ metadata" style="shape=flexArrow;endArrow=classic;html=1;entryX=0.5;entryY=0;entryDx=0;entryDy=0;" parent="1" target="RN9INIxDvgJOFiBCgrXU-9" edge="1">
          <mxGeometry x="-0.2" width="50" height="50" relative="1" as="geometry">
            <mxPoint x="180" y="130" as="sourcePoint"/>
            <mxPoint x="-130" y="600" as="targetPoint"/>
            <Array as="points"/>
            <mxPoint as="offset"/>
          </mxGeometry>
        </mxCell>
        <mxCell id="5JjlQ0Los4AuPIkOIIEd-21" value="PDFs" style="shape=flexArrow;endArrow=classic;html=1;entryX=0.25;entryY=0;entryDx=0;entryDy=0;exitX=0.15;exitY=0.95;exitDx=0;exitDy=0;exitPerimeter=0;" parent="1" source="5JjlQ0Los4AuPIkOIIEd-3" target="5JjlQ0Los4AuPIkOIIEd-8" edge="1">
          <mxGeometry x="-0.2" width="50" height="50" relative="1" as="geometry">
            <mxPoint x="155" y="250" as="sourcePoint"/>
            <mxPoint x="154" y="323" as="targetPoint"/>
            <Array as="points"/>
            <mxPoint as="offset"/>
          </mxGeometry>
        </mxCell>
        <mxCell id="5JjlQ0Los4AuPIkOIIEd-22" value="metadata&lt;br&gt;as RDF&lt;br&gt;" style="shape=flexArrow;endArrow=classic;html=1;entryX=0.15;entryY=0.05;entryDx=0;entryDy=0;entryPerimeter=0;exitX=0.5;exitY=1;exitDx=0;exitDy=0;" parent="1" source="5JjlQ0Los4AuPIkOIIEd-3" target="5JjlQ0Los4AuPIkOIIEd-5" edge="1">
          <mxGeometry x="-0.2" width="50" height="50" relative="1" as="geometry">
            <mxPoint x="218" y="250" as="sourcePoint"/>
            <mxPoint x="217" y="323" as="targetPoint"/>
            <Array as="points"/>
            <mxPoint as="offset"/>
          </mxGeometry>
        </mxCell>
        <mxCell id="5JjlQ0Los4AuPIkOIIEd-23" value="PDFs" style="shape=flexArrow;endArrow=classic;html=1;entryX=0;entryY=0.5;entryDx=0;entryDy=0;exitX=0.85;exitY=0.95;exitDx=0;exitDy=0;exitPerimeter=0;" parent="1" source="5JjlQ0Los4AuPIkOIIEd-3" target="RN9INIxDvgJOFiBCgrXU-11" edge="1">
          <mxGeometry x="-0.2" width="50" height="50" relative="1" as="geometry">
            <mxPoint x="155" y="250" as="sourcePoint"/>
            <mxPoint x="154" y="323" as="targetPoint"/>
            <Array as="points"/>
            <mxPoint as="offset"/>
          </mxGeometry>
        </mxCell>
        <mxCell id="5JjlQ0Los4AuPIkOIIEd-24" value="configuration&lt;br&gt;as RDF&lt;br&gt;" style="shape=flexArrow;endArrow=classic;html=1;entryX=0.25;entryY=0;entryDx=0;entryDy=0;exitX=0.5;exitY=1;exitDx=0;exitDy=0;" parent="1" source="5JjlQ0Los4AuPIkOIIEd-4" target="RN9INIxDvgJOFiBCgrXU-11" edge="1">
          <mxGeometry x="-0.2" width="50" height="50" relative="1" as="geometry">
            <mxPoint x="361" y="178.5" as="sourcePoint"/>
            <mxPoint x="360" y="251.5" as="targetPoint"/>
            <Array as="points"/>
            <mxPoint as="offset"/>
          </mxGeometry>
        </mxCell>
        <mxCell id="5JjlQ0Los4AuPIkOIIEd-25" value="semantics&lt;br&gt;as RDF&lt;br&gt;" style="shape=flexArrow;endArrow=classic;html=1;entryX=0.85;entryY=0.05;entryDx=0;entryDy=0;entryPerimeter=0;exitX=0.5;exitY=1;exitDx=0;exitDy=0;" parent="1" source="RN9INIxDvgJOFiBCgrXU-11" target="5JjlQ0Los4AuPIkOIIEd-5" edge="1">
          <mxGeometry x="-0.2" width="50" height="50" relative="1" as="geometry">
            <mxPoint x="185" y="380" as="sourcePoint"/>
            <mxPoint x="244" y="593" as="targetPoint"/>
            <Array as="points"/>
            <mxPoint as="offset"/>
          </mxGeometry>
        </mxCell>
        <mxCell id="5JjlQ0Los4AuPIkOIIEd-26" value="KG as RDF&lt;br&gt;" style="shape=flexArrow;endArrow=classic;html=1;entryX=0.75;entryY=0;entryDx=0;entryDy=0;exitX=0.15;exitY=0.95;exitDx=0;exitDy=0;exitPerimeter=0;" parent="1" source="5JjlQ0Los4AuPIkOIIEd-5" target="5JjlQ0Los4AuPIkOIIEd-8" edge="1">
          <mxGeometry x="-0.2" width="50" height="50" relative="1" as="geometry">
            <mxPoint x="489" y="580" as="sourcePoint"/>
            <mxPoint x="451" y="683" as="targetPoint"/>
            <Array as="points"/>
            <mxPoint as="offset"/>
          </mxGeometry>
        </mxCell>
        <mxCell id="5JjlQ0Los4AuPIkOIIEd-27" value="KG as RDF&lt;br&gt;" style="shape=flexArrow;endArrow=classic;html=1;exitX=0.85;exitY=0.95;exitDx=0;exitDy=0;exitPerimeter=0;entryX=0.07;entryY=0.4;entryDx=0;entryDy=0;entryPerimeter=0;" parent="1" source="5JjlQ0Los4AuPIkOIIEd-5" target="5JjlQ0Los4AuPIkOIIEd-36" edge="1">
          <mxGeometry x="-0.2" width="50" height="50" relative="1" as="geometry">
            <mxPoint x="244" y="647" as="sourcePoint"/>
            <mxPoint x="580" y="614" as="targetPoint"/>
            <Array as="points"/>
            <mxPoint as="offset"/>
          </mxGeometry>
        </mxCell>
        <mxCell id="5JjlQ0Los4AuPIkOIIEd-28" value="knowledge graph&lt;br&gt;interaction" style="shape=flexArrow;endArrow=classic;startArrow=classic;html=1;entryX=0.25;entryY=1;entryDx=0;entryDy=0;" parent="1" target="5JjlQ0Los4AuPIkOIIEd-8" edge="1">
          <mxGeometry width="50" height="50" relative="1" as="geometry">
            <mxPoint x="186" y="760" as="sourcePoint"/>
            <mxPoint x="60" y="750" as="targetPoint"/>
          </mxGeometry>
        </mxCell>
        <mxCell id="5JjlQ0Los4AuPIkOIIEd-29" value="knowledge graph&lt;br&gt;interaction" style="shape=flexArrow;endArrow=classic;startArrow=classic;html=1;entryX=0.75;entryY=1;entryDx=0;entryDy=0;" parent="1" target="5JjlQ0Los4AuPIkOIIEd-8" edge="1">
          <mxGeometry width="50" height="50" relative="1" as="geometry">
            <mxPoint x="400" y="790" as="sourcePoint"/>
            <mxPoint x="230" y="820" as="targetPoint"/>
          </mxGeometry>
        </mxCell>
        <mxCell id="5JjlQ0Los4AuPIkOIIEd-40" value="" style="group" parent="1" vertex="1" connectable="0">
          <mxGeometry x="526.5" y="570" width="180" height="118" as="geometry"/>
        </mxCell>
        <mxCell id="5JjlQ0Los4AuPIkOIIEd-36" value="Semantic Web Tools" style="ellipse;shape=cloud;whiteSpace=wrap;html=1;" parent="5JjlQ0Los4AuPIkOIIEd-40" vertex="1">
          <mxGeometry width="180" height="118" as="geometry"/>
        </mxCell>
        <mxCell id="5JjlQ0Los4AuPIkOIIEd-37" value="" style="shape=mxgraph.bpmn.service_task;html=1;outlineConnect=0;" parent="5JjlQ0Los4AuPIkOIIEd-40" vertex="1">
          <mxGeometry x="65" y="20" width="24" height="27" as="geometry"/>
        </mxCell>
        <mxCell id="5JjlQ0Los4AuPIkOIIEd-38" value="" style="shape=mxgraph.bpmn.service_task;html=1;outlineConnect=0;" parent="5JjlQ0Los4AuPIkOIIEd-40" vertex="1">
          <mxGeometry x="111" y="66.5" width="24" height="27" as="geometry"/>
        </mxCell>
        <mxCell id="5JjlQ0Los4AuPIkOIIEd-39" value="" style="shape=mxgraph.bpmn.service_task;html=1;outlineConnect=0;" parent="5JjlQ0Los4AuPIkOIIEd-40" vertex="1">
          <mxGeometry x="65" y="66.5" width="24" height="27" as="geometry"/>
        </mxCell>
        <mxCell id="5JjlQ0Los4AuPIkOIIEd-41" value="" style="group" parent="1" vertex="1" connectable="0">
          <mxGeometry x="310" y="587" width="191" height="121" as="geometry"/>
        </mxCell>
        <mxCell id="5JjlQ0Los4AuPIkOIIEd-31" value="External Triple Stores" style="ellipse;shape=cloud;whiteSpace=wrap;html=1;" parent="5JjlQ0Los4AuPIkOIIEd-41" vertex="1">
          <mxGeometry width="180.54726368159203" height="100" as="geometry"/>
        </mxCell>
        <mxCell id="5JjlQ0Los4AuPIkOIIEd-32" value="" style="shape=cylinder;whiteSpace=wrap;html=1;boundedLbl=1;backgroundOutline=1;" parent="5JjlQ0Los4AuPIkOIIEd-41" vertex="1">
          <mxGeometry x="52.73880597014925" y="21" width="33.25870646766169" height="20" as="geometry"/>
        </mxCell>
        <mxCell id="5JjlQ0Los4AuPIkOIIEd-33" value="" style="shape=cylinder;whiteSpace=wrap;html=1;boundedLbl=1;backgroundOutline=1;" parent="5JjlQ0Los4AuPIkOIIEd-41" vertex="1">
          <mxGeometry x="76.4950248756219" y="62" width="33.25870646766169" height="20" as="geometry"/>
        </mxCell>
        <mxCell id="5JjlQ0Los4AuPIkOIIEd-34" value="" style="shape=cylinder;whiteSpace=wrap;html=1;boundedLbl=1;backgroundOutline=1;" parent="5JjlQ0Los4AuPIkOIIEd-41" vertex="1">
          <mxGeometry x="116.40547263681592" y="23" width="33.25870646766169" height="20" as="geometry"/>
        </mxCell>
        <mxCell id="5JjlQ0Los4AuPIkOIIEd-42" value="" style="shape=flexArrow;endArrow=classic;html=1;entryX=1;entryY=0.5;entryDx=0;entryDy=0;exitX=0.114;exitY=0.57;exitDx=0;exitDy=0;exitPerimeter=0;" parent="1" source="5JjlQ0Los4AuPIkOIIEd-31" target="5JjlQ0Los4AuPIkOIIEd-8" edge="1">
          <mxGeometry x="-0.2" width="50" height="50" relative="1" as="geometry">
            <mxPoint x="244" y="647" as="sourcePoint"/>
            <mxPoint x="230" y="770" as="targetPoint"/>
            <Array as="points"/>
            <mxPoint as="offset"/>
          </mxGeometry>
        </mxCell>
        <mxCell id="5JjlQ0Los4AuPIkOIIEd-44" value="" style="shape=flexArrow;endArrow=classic;html=1;entryX=0.108;entryY=0.661;entryDx=0;entryDy=0;entryPerimeter=0;exitX=0.875;exitY=0.5;exitDx=0;exitDy=0;exitPerimeter=0;" parent="1" source="5JjlQ0Los4AuPIkOIIEd-31" target="5JjlQ0Los4AuPIkOIIEd-36" edge="1">
          <mxGeometry x="-0.2" width="50" height="50" relative="1" as="geometry">
            <mxPoint x="455" y="666" as="sourcePoint"/>
            <mxPoint x="580" y="774" as="targetPoint"/>
            <Array as="points"/>
            <mxPoint as="offset"/>
          </mxGeometry>
        </mxCell>
        <mxCell id="5JjlQ0Los4AuPIkOIIEd-45" value="queries and manipulation" style="shape=flexArrow;endArrow=classic;startArrow=classic;html=1;entryX=0.31;entryY=0.8;entryDx=0;entryDy=0;entryPerimeter=0;" parent="1" target="5JjlQ0Los4AuPIkOIIEd-36" edge="1">
          <mxGeometry width="50" height="50" relative="1" as="geometry">
            <mxPoint x="440" y="790" as="sourcePoint"/>
            <mxPoint x="262" y="820" as="targetPoint"/>
          </mxGeometry>
        </mxCell>
        <mxCell id="5JjlQ0Los4AuPIkOIIEd-59" value="" style="group" parent="1" vertex="1" connectable="0">
          <mxGeometry x="485" y="216.5" width="194" height="108" as="geometry"/>
        </mxCell>
        <mxCell id="5JjlQ0Los4AuPIkOIIEd-58" value="" style="group" parent="5JjlQ0Los4AuPIkOIIEd-59" vertex="1" connectable="0">
          <mxGeometry width="194" height="108" as="geometry"/>
        </mxCell>
        <mxCell id="5JjlQ0Los4AuPIkOIIEd-48" value="Service Descriptions" style="ellipse;shape=cloud;whiteSpace=wrap;html=1;" parent="5JjlQ0Los4AuPIkOIIEd-58" vertex="1">
          <mxGeometry width="190" height="108" as="geometry"/>
        </mxCell>
        <mxCell id="5JjlQ0Los4AuPIkOIIEd-49" value="" style="shape=cylinder;whiteSpace=wrap;html=1;boundedLbl=1;backgroundOutline=1;" parent="5JjlQ0Los4AuPIkOIIEd-58" vertex="1">
          <mxGeometry x="52" y="25" width="35" height="20" as="geometry"/>
        </mxCell>
        <mxCell id="5JjlQ0Los4AuPIkOIIEd-50" value="" style="shape=cylinder;whiteSpace=wrap;html=1;boundedLbl=1;backgroundOutline=1;" parent="5JjlQ0Los4AuPIkOIIEd-58" vertex="1">
          <mxGeometry x="87" y="70.5" width="35" height="20" as="geometry"/>
        </mxCell>
        <mxCell id="5JjlQ0Los4AuPIkOIIEd-51" value="" style="shape=cylinder;whiteSpace=wrap;html=1;boundedLbl=1;backgroundOutline=1;" parent="5JjlQ0Los4AuPIkOIIEd-58" vertex="1">
          <mxGeometry x="120" y="25" width="35" height="20" as="geometry"/>
        </mxCell>
        <mxCell id="5JjlQ0Los4AuPIkOIIEd-60" value="" style="group" parent="1" vertex="1" connectable="0">
          <mxGeometry x="534.5" y="344" width="178" height="109" as="geometry"/>
        </mxCell>
        <mxCell id="5JjlQ0Los4AuPIkOIIEd-53" value="Semantic Enrichment&lt;br&gt;Services" style="ellipse;shape=cloud;whiteSpace=wrap;html=1;" parent="5JjlQ0Los4AuPIkOIIEd-60" vertex="1">
          <mxGeometry width="178" height="109" as="geometry"/>
        </mxCell>
        <mxCell id="5JjlQ0Los4AuPIkOIIEd-54" value="" style="shape=mxgraph.bpmn.service_task;html=1;outlineConnect=0;" parent="5JjlQ0Los4AuPIkOIIEd-60" vertex="1">
          <mxGeometry x="66" y="15" width="24" height="27" as="geometry"/>
        </mxCell>
        <mxCell id="5JjlQ0Los4AuPIkOIIEd-55" value="" style="shape=mxgraph.bpmn.service_task;html=1;outlineConnect=0;" parent="5JjlQ0Los4AuPIkOIIEd-60" vertex="1">
          <mxGeometry x="123" y="54.5" width="24" height="27" as="geometry"/>
        </mxCell>
        <mxCell id="5JjlQ0Los4AuPIkOIIEd-56" value="" style="shape=mxgraph.bpmn.service_task;html=1;outlineConnect=0;" parent="5JjlQ0Los4AuPIkOIIEd-60" vertex="1">
          <mxGeometry x="38" y="54.5" width="24" height="27" as="geometry"/>
        </mxCell>
        <mxCell id="5JjlQ0Los4AuPIkOIIEd-61" value="" style="shape=flexArrow;endArrow=classic;startArrow=classic;html=1;entryX=0.11;entryY=0.532;entryDx=0;entryDy=0;entryPerimeter=0;exitX=1;exitY=0.5;exitDx=0;exitDy=0;" parent="1" source="RN9INIxDvgJOFiBCgrXU-11" target="5JjlQ0Los4AuPIkOIIEd-53" edge="1">
          <mxGeometry width="50" height="50" relative="1" as="geometry">
            <mxPoint x="470" y="930" as="sourcePoint"/>
            <mxPoint x="594" y="827" as="targetPoint"/>
          </mxGeometry>
        </mxCell>
        <mxCell id="5JjlQ0Los4AuPIkOIIEd-62" value="service descriptions&lt;br&gt;as RDF&lt;br&gt;" style="shape=flexArrow;endArrow=classic;html=1;entryX=0.75;entryY=0;entryDx=0;entryDy=0;exitX=0.13;exitY=0.77;exitDx=0;exitDy=0;exitPerimeter=0;" parent="1" source="5JjlQ0Los4AuPIkOIIEd-48" target="RN9INIxDvgJOFiBCgrXU-11" edge="1">
          <mxGeometry x="-0.2" width="50" height="50" relative="1" as="geometry">
            <mxPoint x="345" y="490" as="sourcePoint"/>
            <mxPoint x="362" y="593" as="targetPoint"/>
            <Array as="points"/>
            <mxPoint as="offset"/>
          </mxGeometry>
        </mxCell>
        <mxCell id="5JjlQ0Los4AuPIkOIIEd-63" value="Data Expert" style="shape=umlActor;verticalLabelPosition=bottom;labelBackgroundColor=#ffffff;verticalAlign=top;html=1;outlineConnect=0;" parent="1" vertex="1">
          <mxGeometry x="454" y="40" width="30" height="60" as="geometry"/>
        </mxCell>
        <mxCell id="5JjlQ0Los4AuPIkOIIEd-64" value="Service Provider" style="shape=umlActor;verticalLabelPosition=bottom;labelBackgroundColor=#ffffff;verticalAlign=top;html=1;outlineConnect=0;" parent="1" vertex="1">
          <mxGeometry x="601.5" y="40" width="30" height="60" as="geometry"/>
        </mxCell>
        <mxCell id="5JjlQ0Los4AuPIkOIIEd-67" value="configuration" style="shape=flexArrow;endArrow=classic;html=1;entryX=0.5;entryY=0;entryDx=0;entryDy=0;" parent="1" target="5JjlQ0Los4AuPIkOIIEd-4" edge="1">
          <mxGeometry x="-0.2" width="50" height="50" relative="1" as="geometry">
            <mxPoint x="450" y="130" as="sourcePoint"/>
            <mxPoint x="187" y="200" as="targetPoint"/>
            <Array as="points"/>
            <mxPoint as="offset"/>
          </mxGeometry>
        </mxCell>
        <mxCell id="5JjlQ0Los4AuPIkOIIEd-68" value="service&lt;br&gt;description" style="shape=flexArrow;endArrow=classic;html=1;entryX=0.505;entryY=0.13;entryDx=0;entryDy=0;entryPerimeter=0;" parent="1" target="5JjlQ0Los4AuPIkOIIEd-48" edge="1">
          <mxGeometry x="-0.2" width="50" height="50" relative="1" as="geometry">
            <mxPoint x="610" y="130" as="sourcePoint"/>
            <mxPoint x="345" y="305" as="targetPoint"/>
            <Array as="points"/>
            <mxPoint as="offset"/>
          </mxGeometry>
        </mxCell>
        <mxCell id="5JjlQ0Los4AuPIkOIIEd-69" value="service&lt;br&gt;description" style="shape=flexArrow;endArrow=classic;html=1;entryX=0.25;entryY=0.25;entryDx=0;entryDy=0;entryPerimeter=0;" parent="1" target="5JjlQ0Los4AuPIkOIIEd-48" edge="1">
          <mxGeometry x="-0.2" width="50" height="50" relative="1" as="geometry">
            <mxPoint x="480" y="130" as="sourcePoint"/>
            <mxPoint x="570" y="295" as="targetPoint"/>
            <Array as="points"/>
            <mxPoint as="offset"/>
          </mxGeometry>
        </mxCell>
        <mxCell id="5JjlQ0Los4AuPIkOIIEd-70" value="&lt;span&gt;Legacy Systems&lt;/span&gt;" style="shape=cylinder;whiteSpace=wrap;html=1;boundedLbl=1;backgroundOutline=1;" parent="1" vertex="1">
          <mxGeometry x="271" y="176" width="90" height="60" as="geometry"/>
        </mxCell>
        <mxCell id="5JjlQ0Los4AuPIkOIIEd-72" value="PDFs&amp;nbsp;+&lt;br&gt;metadata as RDF" style="shape=flexArrow;endArrow=classic;html=1;entryX=0.15;entryY=0.05;entryDx=0;entryDy=0;exitX=0.5;exitY=1;exitDx=0;exitDy=0;entryPerimeter=0;" parent="1" source="RN9INIxDvgJOFiBCgrXU-9" target="5JjlQ0Los4AuPIkOIIEd-3" edge="1">
          <mxGeometry x="-0.2" width="50" height="50" relative="1" as="geometry">
            <mxPoint x="187" y="140" as="sourcePoint"/>
            <mxPoint x="187" y="200" as="targetPoint"/>
            <Array as="points"/>
            <mxPoint as="offset"/>
          </mxGeometry>
        </mxCell>
        <mxCell id="5JjlQ0Los4AuPIkOIIEd-73" value="PDFs&amp;nbsp;+&lt;br&gt;metadata as RDF" style="shape=flexArrow;endArrow=classic;html=1;entryX=0.85;entryY=0.05;entryDx=0;entryDy=0;entryPerimeter=0;" parent="1" source="5JjlQ0Los4AuPIkOIIEd-70" target="5JjlQ0Los4AuPIkOIIEd-3" edge="1">
          <mxGeometry x="-0.2" width="50" height="50" relative="1" as="geometry">
            <mxPoint x="187" y="250" as="sourcePoint"/>
            <mxPoint x="187" y="320" as="targetPoint"/>
            <Array as="points"/>
            <mxPoint as="offset"/>
          </mxGeometry>
        </mxCell>
      </root>
    </mxGraphModel>
  </diagram>
  <diagram name="Shorter" id="O8HOUQhRKlWi2tbfJlW1">
    <mxGraphModel dx="786" dy="470" grid="1" gridSize="10" guides="1" tooltips="1" connect="1" arrows="1" fold="1" page="1" pageScale="1" pageWidth="827" pageHeight="1169" math="0" shadow="0">
      <root>
        <mxCell id="vkBiY0j5gQ9y6xPYFULK-0"/>
        <mxCell id="vkBiY0j5gQ9y6xPYFULK-1" parent="vkBiY0j5gQ9y6xPYFULK-0"/>
        <mxCell id="vkBiY0j5gQ9y6xPYFULK-2" value="Editor/Librarian" style="shape=umlActor;verticalLabelPosition=bottom;labelBackgroundColor=#ffffff;verticalAlign=top;html=1;outlineConnect=0;" parent="vkBiY0j5gQ9y6xPYFULK-1" vertex="1">
          <mxGeometry x="172.5" y="70.5" width="15" height="30" as="geometry"/>
        </mxCell>
        <mxCell id="vkBiY0j5gQ9y6xPYFULK-3" value="CMS-like&lt;br&gt;Front End" style="rounded=0;whiteSpace=wrap;html=1;" parent="vkBiY0j5gQ9y6xPYFULK-1" vertex="1">
          <mxGeometry x="130" y="181" width="100" height="50" as="geometry"/>
        </mxCell>
        <mxCell id="vkBiY0j5gQ9y6xPYFULK-4" value="Service Integration Engine" style="rounded=0;whiteSpace=wrap;html=1;" parent="vkBiY0j5gQ9y6xPYFULK-1" vertex="1">
          <mxGeometry x="383" y="317.5" width="120" height="60" as="geometry"/>
        </mxCell>
        <mxCell id="vkBiY0j5gQ9y6xPYFULK-5" value="&lt;span&gt;Linked Data Container&lt;/span&gt;" style="shape=cylinder;whiteSpace=wrap;html=1;boundedLbl=1;backgroundOutline=1;" parent="vkBiY0j5gQ9y6xPYFULK-1" vertex="1">
          <mxGeometry x="173" y="311.5" width="90" height="60" as="geometry"/>
        </mxCell>
        <mxCell id="vkBiY0j5gQ9y6xPYFULK-6" value="&lt;span&gt;Integration&lt;br&gt;Configuration&lt;/span&gt;" style="shape=cylinder;whiteSpace=wrap;html=1;boundedLbl=1;backgroundOutline=1;" parent="vkBiY0j5gQ9y6xPYFULK-1" vertex="1">
          <mxGeometry x="383" y="176" width="90" height="60" as="geometry"/>
        </mxCell>
        <mxCell id="vkBiY0j5gQ9y6xPYFULK-7" value="&lt;span&gt;Triple Store&lt;/span&gt;" style="shape=cylinder;whiteSpace=wrap;html=1;boundedLbl=1;backgroundOutline=1;" parent="vkBiY0j5gQ9y6xPYFULK-1" vertex="1">
          <mxGeometry x="349" y="430" width="112" height="40" as="geometry"/>
        </mxCell>
        <mxCell id="vkBiY0j5gQ9y6xPYFULK-8" value="KG Search/Explore&lt;br&gt;Front End" style="rounded=0;whiteSpace=wrap;html=1;" parent="vkBiY0j5gQ9y6xPYFULK-1" vertex="1">
          <mxGeometry x="150" y="520.5" width="127" height="50" as="geometry"/>
        </mxCell>
        <mxCell id="vkBiY0j5gQ9y6xPYFULK-11" value="PDFs&amp;nbsp;+ metadata" style="shape=flexArrow;endArrow=classic;html=1;entryX=0.5;entryY=0;entryDx=0;entryDy=0;" parent="vkBiY0j5gQ9y6xPYFULK-1" target="vkBiY0j5gQ9y6xPYFULK-3" edge="1">
          <mxGeometry x="-0.2" width="50" height="50" relative="1" as="geometry">
            <mxPoint x="180" y="130" as="sourcePoint"/>
            <mxPoint x="-130" y="600" as="targetPoint"/>
            <Array as="points"/>
            <mxPoint as="offset"/>
          </mxGeometry>
        </mxCell>
        <mxCell id="vkBiY0j5gQ9y6xPYFULK-12" value="PDFs" style="shape=flexArrow;endArrow=classic;html=1;entryX=0.25;entryY=0;entryDx=0;entryDy=0;exitX=0.15;exitY=0.95;exitDx=0;exitDy=0;exitPerimeter=0;" parent="vkBiY0j5gQ9y6xPYFULK-1" source="vkBiY0j5gQ9y6xPYFULK-5" target="vkBiY0j5gQ9y6xPYFULK-8" edge="1">
          <mxGeometry x="-0.2" width="50" height="50" relative="1" as="geometry">
            <mxPoint x="155" y="250" as="sourcePoint"/>
            <mxPoint x="154" y="323" as="targetPoint"/>
            <Array as="points"/>
            <mxPoint as="offset"/>
          </mxGeometry>
        </mxCell>
        <mxCell id="vkBiY0j5gQ9y6xPYFULK-13" value="metadata as RDF" style="shape=flexArrow;endArrow=classic;html=1;entryX=0.15;entryY=0.05;entryDx=0;entryDy=0;entryPerimeter=0;edgeStyle=orthogonalEdgeStyle;" parent="vkBiY0j5gQ9y6xPYFULK-1" target="vkBiY0j5gQ9y6xPYFULK-7" edge="1">
          <mxGeometry x="-0.2" width="50" height="50" relative="1" as="geometry">
            <mxPoint x="230" y="372" as="sourcePoint"/>
            <mxPoint x="300" y="432" as="targetPoint"/>
            <Array as="points">
              <mxPoint x="230" y="400"/>
              <mxPoint x="366" y="400"/>
            </Array>
            <mxPoint as="offset"/>
          </mxGeometry>
        </mxCell>
        <mxCell id="vkBiY0j5gQ9y6xPYFULK-14" value="PDFs" style="shape=flexArrow;endArrow=classic;html=1;entryX=0;entryY=0.5;entryDx=0;entryDy=0;exitX=1;exitY=0.5;exitDx=0;exitDy=0;" parent="vkBiY0j5gQ9y6xPYFULK-1" source="vkBiY0j5gQ9y6xPYFULK-5" target="vkBiY0j5gQ9y6xPYFULK-4" edge="1">
          <mxGeometry x="-0.2" width="50" height="50" relative="1" as="geometry">
            <mxPoint x="155" y="250" as="sourcePoint"/>
            <mxPoint x="154" y="323" as="targetPoint"/>
            <Array as="points"/>
            <mxPoint as="offset"/>
          </mxGeometry>
        </mxCell>
        <mxCell id="vkBiY0j5gQ9y6xPYFULK-15" value="configuration&lt;br&gt;as RDF&lt;br&gt;" style="shape=flexArrow;endArrow=classic;html=1;entryX=0.25;entryY=0;entryDx=0;entryDy=0;exitX=0.5;exitY=1;exitDx=0;exitDy=0;" parent="vkBiY0j5gQ9y6xPYFULK-1" source="vkBiY0j5gQ9y6xPYFULK-6" target="vkBiY0j5gQ9y6xPYFULK-4" edge="1">
          <mxGeometry x="-0.2" width="50" height="50" relative="1" as="geometry">
            <mxPoint x="361" y="178.5" as="sourcePoint"/>
            <mxPoint x="360" y="251.5" as="targetPoint"/>
            <Array as="points"/>
            <mxPoint as="offset"/>
          </mxGeometry>
        </mxCell>
        <mxCell id="vkBiY0j5gQ9y6xPYFULK-16" value="semantics as RDF" style="shape=flexArrow;endArrow=classic;html=1;exitX=0.5;exitY=1;exitDx=0;exitDy=0;entryX=0.85;entryY=0.05;entryDx=0;entryDy=0;entryPerimeter=0;" parent="vkBiY0j5gQ9y6xPYFULK-1" source="vkBiY0j5gQ9y6xPYFULK-4" target="vkBiY0j5gQ9y6xPYFULK-7" edge="1">
          <mxGeometry x="-0.2" width="50" height="50" relative="1" as="geometry">
            <mxPoint x="185" y="380" as="sourcePoint"/>
            <mxPoint x="453" y="432" as="targetPoint"/>
            <Array as="points"/>
            <mxPoint as="offset"/>
          </mxGeometry>
        </mxCell>
        <mxCell id="vkBiY0j5gQ9y6xPYFULK-17" value="KG as RDF&lt;br&gt;" style="shape=flexArrow;endArrow=classic;html=1;entryX=0.75;entryY=0;entryDx=0;entryDy=0;exitX=0.15;exitY=0.95;exitDx=0;exitDy=0;exitPerimeter=0;edgeStyle=orthogonalEdgeStyle;" parent="vkBiY0j5gQ9y6xPYFULK-1" source="vkBiY0j5gQ9y6xPYFULK-7" target="vkBiY0j5gQ9y6xPYFULK-8" edge="1">
          <mxGeometry x="-0.2" width="50" height="50" relative="1" as="geometry">
            <mxPoint x="489" y="580" as="sourcePoint"/>
            <mxPoint x="451" y="683" as="targetPoint"/>
            <Array as="points">
              <mxPoint x="366" y="490"/>
              <mxPoint x="245" y="490"/>
            </Array>
            <mxPoint as="offset"/>
          </mxGeometry>
        </mxCell>
        <mxCell id="vkBiY0j5gQ9y6xPYFULK-18" value="KG as RDF&lt;br&gt;" style="shape=flexArrow;endArrow=classic;html=1;exitX=0.85;exitY=0.95;exitDx=0;exitDy=0;exitPerimeter=0;entryX=0.07;entryY=0.4;entryDx=0;entryDy=0;entryPerimeter=0;edgeStyle=orthogonalEdgeStyle;" parent="vkBiY0j5gQ9y6xPYFULK-1" source="vkBiY0j5gQ9y6xPYFULK-7" target="vkBiY0j5gQ9y6xPYFULK-22" edge="1">
          <mxGeometry x="-0.2" width="50" height="50" relative="1" as="geometry">
            <mxPoint x="244" y="647" as="sourcePoint"/>
            <mxPoint x="580" y="614" as="targetPoint"/>
            <Array as="points">
              <mxPoint x="444" y="490"/>
              <mxPoint x="520" y="490"/>
              <mxPoint x="520" y="516"/>
            </Array>
            <mxPoint as="offset"/>
          </mxGeometry>
        </mxCell>
        <mxCell id="vkBiY0j5gQ9y6xPYFULK-19" value="KG interaction" style="shape=flexArrow;endArrow=classic;startArrow=classic;html=1;entryX=0.25;entryY=1;entryDx=0;entryDy=0;" parent="vkBiY0j5gQ9y6xPYFULK-1" target="vkBiY0j5gQ9y6xPYFULK-8" edge="1">
          <mxGeometry width="50" height="50" relative="1" as="geometry">
            <mxPoint x="182" y="640" as="sourcePoint"/>
            <mxPoint x="60" y="750" as="targetPoint"/>
          </mxGeometry>
        </mxCell>
        <mxCell id="vkBiY0j5gQ9y6xPYFULK-20" value="KG interaction" style="shape=flexArrow;endArrow=classic;startArrow=classic;html=1;entryX=0.75;entryY=1;entryDx=0;entryDy=0;edgeStyle=orthogonalEdgeStyle;" parent="vkBiY0j5gQ9y6xPYFULK-1" target="vkBiY0j5gQ9y6xPYFULK-8" edge="1">
          <mxGeometry width="50" height="50" relative="1" as="geometry">
            <mxPoint x="400" y="650" as="sourcePoint"/>
            <mxPoint x="230" y="820" as="targetPoint"/>
            <Array as="points">
              <mxPoint x="400" y="610"/>
              <mxPoint x="245" y="610"/>
            </Array>
          </mxGeometry>
        </mxCell>
        <mxCell id="vkBiY0j5gQ9y6xPYFULK-21" value="" style="group" parent="vkBiY0j5gQ9y6xPYFULK-1" vertex="1" connectable="0">
          <mxGeometry x="535.5" y="468.5" width="180" height="118" as="geometry"/>
        </mxCell>
        <mxCell id="vkBiY0j5gQ9y6xPYFULK-22" value="Semantic Web Tools" style="ellipse;shape=cloud;whiteSpace=wrap;html=1;" parent="vkBiY0j5gQ9y6xPYFULK-21" vertex="1">
          <mxGeometry width="180" height="118" as="geometry"/>
        </mxCell>
        <mxCell id="vkBiY0j5gQ9y6xPYFULK-23" value="" style="shape=mxgraph.bpmn.service_task;html=1;outlineConnect=0;" parent="vkBiY0j5gQ9y6xPYFULK-21" vertex="1">
          <mxGeometry x="65" y="20" width="24" height="27" as="geometry"/>
        </mxCell>
        <mxCell id="vkBiY0j5gQ9y6xPYFULK-24" value="" style="shape=mxgraph.bpmn.service_task;html=1;outlineConnect=0;" parent="vkBiY0j5gQ9y6xPYFULK-21" vertex="1">
          <mxGeometry x="111" y="66.5" width="24" height="27" as="geometry"/>
        </mxCell>
        <mxCell id="vkBiY0j5gQ9y6xPYFULK-25" value="" style="shape=mxgraph.bpmn.service_task;html=1;outlineConnect=0;" parent="vkBiY0j5gQ9y6xPYFULK-21" vertex="1">
          <mxGeometry x="65" y="66.5" width="24" height="27" as="geometry"/>
        </mxCell>
        <mxCell id="vkBiY0j5gQ9y6xPYFULK-26" value="" style="group" parent="vkBiY0j5gQ9y6xPYFULK-1" vertex="1" connectable="0">
          <mxGeometry x="315" y="501.5" width="191" height="121" as="geometry"/>
        </mxCell>
        <mxCell id="vkBiY0j5gQ9y6xPYFULK-27" value="External Triple Stores" style="ellipse;shape=cloud;whiteSpace=wrap;html=1;" parent="vkBiY0j5gQ9y6xPYFULK-26" vertex="1">
          <mxGeometry width="180.54726368159203" height="100" as="geometry"/>
        </mxCell>
        <mxCell id="vkBiY0j5gQ9y6xPYFULK-28" value="" style="shape=cylinder;whiteSpace=wrap;html=1;boundedLbl=1;backgroundOutline=1;" parent="vkBiY0j5gQ9y6xPYFULK-26" vertex="1">
          <mxGeometry x="52.73880597014925" y="21" width="33.25870646766169" height="20" as="geometry"/>
        </mxCell>
        <mxCell id="vkBiY0j5gQ9y6xPYFULK-29" value="" style="shape=cylinder;whiteSpace=wrap;html=1;boundedLbl=1;backgroundOutline=1;" parent="vkBiY0j5gQ9y6xPYFULK-26" vertex="1">
          <mxGeometry x="76.4950248756219" y="62" width="33.25870646766169" height="20" as="geometry"/>
        </mxCell>
        <mxCell id="vkBiY0j5gQ9y6xPYFULK-30" value="" style="shape=cylinder;whiteSpace=wrap;html=1;boundedLbl=1;backgroundOutline=1;" parent="vkBiY0j5gQ9y6xPYFULK-26" vertex="1">
          <mxGeometry x="116.40547263681592" y="23" width="33.25870646766169" height="20" as="geometry"/>
        </mxCell>
        <mxCell id="vkBiY0j5gQ9y6xPYFULK-31" value="" style="shape=flexArrow;endArrow=classic;html=1;entryX=1;entryY=0.5;entryDx=0;entryDy=0;exitX=0.114;exitY=0.57;exitDx=0;exitDy=0;exitPerimeter=0;" parent="vkBiY0j5gQ9y6xPYFULK-1" source="vkBiY0j5gQ9y6xPYFULK-27" target="vkBiY0j5gQ9y6xPYFULK-8" edge="1">
          <mxGeometry x="-0.2" width="50" height="50" relative="1" as="geometry">
            <mxPoint x="244" y="647" as="sourcePoint"/>
            <mxPoint x="230" y="770" as="targetPoint"/>
            <Array as="points"/>
            <mxPoint as="offset"/>
          </mxGeometry>
        </mxCell>
        <mxCell id="vkBiY0j5gQ9y6xPYFULK-32" value="" style="shape=flexArrow;endArrow=classic;html=1;entryX=0.108;entryY=0.661;entryDx=0;entryDy=0;entryPerimeter=0;exitX=0.875;exitY=0.5;exitDx=0;exitDy=0;exitPerimeter=0;" parent="vkBiY0j5gQ9y6xPYFULK-1" source="vkBiY0j5gQ9y6xPYFULK-27" target="vkBiY0j5gQ9y6xPYFULK-22" edge="1">
          <mxGeometry x="-0.2" width="50" height="50" relative="1" as="geometry">
            <mxPoint x="455" y="666" as="sourcePoint"/>
            <mxPoint x="580" y="774" as="targetPoint"/>
            <Array as="points"/>
            <mxPoint as="offset"/>
          </mxGeometry>
        </mxCell>
        <mxCell id="vkBiY0j5gQ9y6xPYFULK-33" value="queries and manipulation" style="shape=flexArrow;endArrow=classic;startArrow=classic;html=1;entryX=0.31;entryY=0.8;entryDx=0;entryDy=0;entryPerimeter=0;edgeStyle=orthogonalEdgeStyle;" parent="vkBiY0j5gQ9y6xPYFULK-1" target="vkBiY0j5gQ9y6xPYFULK-22" edge="1">
          <mxGeometry width="50" height="50" relative="1" as="geometry">
            <mxPoint x="440" y="650" as="sourcePoint"/>
            <mxPoint x="262" y="820" as="targetPoint"/>
            <Array as="points">
              <mxPoint x="440" y="610"/>
              <mxPoint x="591" y="610"/>
            </Array>
          </mxGeometry>
        </mxCell>
        <mxCell id="vkBiY0j5gQ9y6xPYFULK-34" value="" style="group" parent="vkBiY0j5gQ9y6xPYFULK-1" vertex="1" connectable="0">
          <mxGeometry x="496.5" y="168.5" width="194" height="108" as="geometry"/>
        </mxCell>
        <mxCell id="vkBiY0j5gQ9y6xPYFULK-35" value="" style="group" parent="vkBiY0j5gQ9y6xPYFULK-34" vertex="1" connectable="0">
          <mxGeometry width="194" height="108" as="geometry"/>
        </mxCell>
        <mxCell id="vkBiY0j5gQ9y6xPYFULK-36" value="Service Descriptions" style="ellipse;shape=cloud;whiteSpace=wrap;html=1;" parent="vkBiY0j5gQ9y6xPYFULK-35" vertex="1">
          <mxGeometry width="190" height="108" as="geometry"/>
        </mxCell>
        <mxCell id="vkBiY0j5gQ9y6xPYFULK-37" value="" style="shape=cylinder;whiteSpace=wrap;html=1;boundedLbl=1;backgroundOutline=1;" parent="vkBiY0j5gQ9y6xPYFULK-35" vertex="1">
          <mxGeometry x="52" y="25" width="35" height="20" as="geometry"/>
        </mxCell>
        <mxCell id="vkBiY0j5gQ9y6xPYFULK-38" value="" style="shape=cylinder;whiteSpace=wrap;html=1;boundedLbl=1;backgroundOutline=1;" parent="vkBiY0j5gQ9y6xPYFULK-35" vertex="1">
          <mxGeometry x="87" y="70.5" width="35" height="20" as="geometry"/>
        </mxCell>
        <mxCell id="vkBiY0j5gQ9y6xPYFULK-39" value="" style="shape=cylinder;whiteSpace=wrap;html=1;boundedLbl=1;backgroundOutline=1;" parent="vkBiY0j5gQ9y6xPYFULK-35" vertex="1">
          <mxGeometry x="120" y="25" width="35" height="20" as="geometry"/>
        </mxCell>
        <mxCell id="vkBiY0j5gQ9y6xPYFULK-40" value="" style="group" parent="vkBiY0j5gQ9y6xPYFULK-1" vertex="1" connectable="0">
          <mxGeometry x="538.5" y="328.5" width="178" height="109" as="geometry"/>
        </mxCell>
        <mxCell id="vkBiY0j5gQ9y6xPYFULK-41" value="Semantic Enrichment&lt;br&gt;Services" style="ellipse;shape=cloud;whiteSpace=wrap;html=1;" parent="vkBiY0j5gQ9y6xPYFULK-40" vertex="1">
          <mxGeometry width="178" height="109" as="geometry"/>
        </mxCell>
        <mxCell id="vkBiY0j5gQ9y6xPYFULK-42" value="" style="shape=mxgraph.bpmn.service_task;html=1;outlineConnect=0;" parent="vkBiY0j5gQ9y6xPYFULK-40" vertex="1">
          <mxGeometry x="66" y="15" width="24" height="27" as="geometry"/>
        </mxCell>
        <mxCell id="vkBiY0j5gQ9y6xPYFULK-43" value="" style="shape=mxgraph.bpmn.service_task;html=1;outlineConnect=0;" parent="vkBiY0j5gQ9y6xPYFULK-40" vertex="1">
          <mxGeometry x="123" y="54.5" width="24" height="27" as="geometry"/>
        </mxCell>
        <mxCell id="vkBiY0j5gQ9y6xPYFULK-44" value="" style="shape=mxgraph.bpmn.service_task;html=1;outlineConnect=0;" parent="vkBiY0j5gQ9y6xPYFULK-40" vertex="1">
          <mxGeometry x="38" y="54.5" width="24" height="27" as="geometry"/>
        </mxCell>
        <mxCell id="vkBiY0j5gQ9y6xPYFULK-45" value="" style="shape=flexArrow;endArrow=classic;startArrow=classic;html=1;exitX=1;exitY=0.5;exitDx=0;exitDy=0;entryX=0.07;entryY=0.4;entryDx=0;entryDy=0;entryPerimeter=0;" parent="vkBiY0j5gQ9y6xPYFULK-1" source="vkBiY0j5gQ9y6xPYFULK-4" target="vkBiY0j5gQ9y6xPYFULK-41" edge="1">
          <mxGeometry width="50" height="50" relative="1" as="geometry">
            <mxPoint x="470" y="930" as="sourcePoint"/>
            <mxPoint x="590" y="360" as="targetPoint"/>
          </mxGeometry>
        </mxCell>
        <mxCell id="vkBiY0j5gQ9y6xPYFULK-46" value="service descriptions&lt;br&gt;as RDF&lt;br&gt;" style="shape=flexArrow;endArrow=classic;html=1;exitX=0.13;exitY=0.77;exitDx=0;exitDy=0;exitPerimeter=0;entryX=0.75;entryY=0;entryDx=0;entryDy=0;" parent="vkBiY0j5gQ9y6xPYFULK-1" source="vkBiY0j5gQ9y6xPYFULK-36" target="vkBiY0j5gQ9y6xPYFULK-4" edge="1">
          <mxGeometry x="-0.2" width="50" height="50" relative="1" as="geometry">
            <mxPoint x="345" y="490" as="sourcePoint"/>
            <mxPoint x="470" y="310" as="targetPoint"/>
            <Array as="points"/>
            <mxPoint as="offset"/>
          </mxGeometry>
        </mxCell>
        <mxCell id="vkBiY0j5gQ9y6xPYFULK-47" value="Data Expert" style="shape=umlActor;verticalLabelPosition=bottom;labelBackgroundColor=#ffffff;verticalAlign=top;html=1;outlineConnect=0;" parent="vkBiY0j5gQ9y6xPYFULK-1" vertex="1">
          <mxGeometry x="465" y="68.5" width="16" height="32" as="geometry"/>
        </mxCell>
        <mxCell id="vkBiY0j5gQ9y6xPYFULK-49" value="configuration" style="shape=flexArrow;endArrow=classic;html=1;entryX=0.5;entryY=0;entryDx=0;entryDy=0;" parent="vkBiY0j5gQ9y6xPYFULK-1" target="vkBiY0j5gQ9y6xPYFULK-6" edge="1">
          <mxGeometry x="-0.2" width="50" height="50" relative="1" as="geometry">
            <mxPoint x="450" y="130" as="sourcePoint"/>
            <mxPoint x="187" y="200" as="targetPoint"/>
            <Array as="points"/>
            <mxPoint as="offset"/>
          </mxGeometry>
        </mxCell>
        <mxCell id="vkBiY0j5gQ9y6xPYFULK-50" value="service description" style="shape=flexArrow;endArrow=classic;html=1;entryX=0.625;entryY=0.2;entryDx=0;entryDy=0;entryPerimeter=0;" parent="vkBiY0j5gQ9y6xPYFULK-1" target="vkBiY0j5gQ9y6xPYFULK-36" edge="1">
          <mxGeometry x="-0.2" width="50" height="50" relative="1" as="geometry">
            <mxPoint x="650" y="130" as="sourcePoint"/>
            <mxPoint x="640" y="170" as="targetPoint"/>
            <Array as="points"/>
            <mxPoint as="offset"/>
          </mxGeometry>
        </mxCell>
        <mxCell id="vkBiY0j5gQ9y6xPYFULK-51" value="service description" style="shape=flexArrow;endArrow=classic;html=1;entryX=0.25;entryY=0.25;entryDx=0;entryDy=0;entryPerimeter=0;" parent="vkBiY0j5gQ9y6xPYFULK-1" target="vkBiY0j5gQ9y6xPYFULK-36" edge="1">
          <mxGeometry x="-0.2" width="50" height="50" relative="1" as="geometry">
            <mxPoint x="500" y="130" as="sourcePoint"/>
            <mxPoint x="570" y="295" as="targetPoint"/>
            <Array as="points"/>
            <mxPoint as="offset"/>
          </mxGeometry>
        </mxCell>
        <mxCell id="vkBiY0j5gQ9y6xPYFULK-52" value="&lt;span&gt;Legacy Systems&lt;/span&gt;" style="shape=cylinder;whiteSpace=wrap;html=1;boundedLbl=1;backgroundOutline=1;" parent="vkBiY0j5gQ9y6xPYFULK-1" vertex="1">
          <mxGeometry x="260" y="176" width="90" height="60" as="geometry"/>
        </mxCell>
        <mxCell id="vkBiY0j5gQ9y6xPYFULK-53" value="PDFs&amp;nbsp;+&lt;br&gt;metadata as RDF" style="shape=flexArrow;endArrow=classic;html=1;entryX=0.15;entryY=0.05;entryDx=0;entryDy=0;exitX=0.5;exitY=1;exitDx=0;exitDy=0;entryPerimeter=0;" parent="vkBiY0j5gQ9y6xPYFULK-1" source="vkBiY0j5gQ9y6xPYFULK-3" target="vkBiY0j5gQ9y6xPYFULK-5" edge="1">
          <mxGeometry x="-0.2" width="50" height="50" relative="1" as="geometry">
            <mxPoint x="187" y="140" as="sourcePoint"/>
            <mxPoint x="187" y="200" as="targetPoint"/>
            <Array as="points"/>
            <mxPoint as="offset"/>
          </mxGeometry>
        </mxCell>
        <mxCell id="vkBiY0j5gQ9y6xPYFULK-54" value="PDFs&amp;nbsp;+&lt;br&gt;metadata as RDF" style="shape=flexArrow;endArrow=classic;html=1;entryX=0.85;entryY=0.05;entryDx=0;entryDy=0;entryPerimeter=0;" parent="vkBiY0j5gQ9y6xPYFULK-1" source="vkBiY0j5gQ9y6xPYFULK-52" target="vkBiY0j5gQ9y6xPYFULK-5" edge="1">
          <mxGeometry x="-0.2" width="50" height="50" relative="1" as="geometry">
            <mxPoint x="187" y="250" as="sourcePoint"/>
            <mxPoint x="187" y="320" as="targetPoint"/>
            <Array as="points"/>
            <mxPoint as="offset"/>
          </mxGeometry>
        </mxCell>
        <mxCell id="VG-tBej9CN-XB-FLrwi8-1" value="Service Provider" style="shape=umlActor;verticalLabelPosition=bottom;labelBackgroundColor=#ffffff;verticalAlign=top;html=1;outlineConnect=0;" vertex="1" parent="vkBiY0j5gQ9y6xPYFULK-1">
          <mxGeometry x="650" y="70.5" width="16" height="32" as="geometry"/>
        </mxCell>
        <mxCell id="VG-tBej9CN-XB-FLrwi8-2" value="Generic User" style="shape=umlActor;verticalLabelPosition=bottom;labelBackgroundColor=#ffffff;verticalAlign=top;html=1;outlineConnect=0;" vertex="1" parent="vkBiY0j5gQ9y6xPYFULK-1">
          <mxGeometry x="172.5" y="650" width="15" height="30" as="geometry"/>
        </mxCell>
        <mxCell id="VG-tBej9CN-XB-FLrwi8-3" value="Domain Expert (e.g., Researcher)" style="shape=umlActor;verticalLabelPosition=bottom;labelBackgroundColor=#ffffff;verticalAlign=top;html=1;outlineConnect=0;" vertex="1" parent="vkBiY0j5gQ9y6xPYFULK-1">
          <mxGeometry x="410.5" y="650" width="15" height="30" as="geometry"/>
        </mxCell>
      </root>
    </mxGraphModel>
  </diagram>
  <diagram name="Smaller" id="tVIjGNlb_4vsDDiOIHhv">
    <mxGraphModel dx="786" dy="519" grid="1" gridSize="10" guides="1" tooltips="1" connect="1" arrows="1" fold="1" page="1" pageScale="1" pageWidth="827" pageHeight="1169" math="0" shadow="0">
      <root>
        <mxCell id="IKLXo63j13k46SLplKar-0"/>
        <mxCell id="IKLXo63j13k46SLplKar-1" parent="IKLXo63j13k46SLplKar-0"/>
        <mxCell id="IKLXo63j13k46SLplKar-2" value="Editor/Librarian" style="shape=umlActor;verticalLabelPosition=bottom;labelBackgroundColor=#ffffff;verticalAlign=top;html=1;outlineConnect=0;" parent="IKLXo63j13k46SLplKar-1" vertex="1">
          <mxGeometry x="167" y="51" width="25" height="50" as="geometry"/>
        </mxCell>
        <mxCell id="IKLXo63j13k46SLplKar-3" value="CMS-like&lt;br&gt;Front End" style="rounded=0;whiteSpace=wrap;html=1;" parent="IKLXo63j13k46SLplKar-1" vertex="1">
          <mxGeometry x="130" y="181" width="100" height="50" as="geometry"/>
        </mxCell>
        <mxCell id="IKLXo63j13k46SLplKar-4" value="Service Integration Engine" style="rounded=0;whiteSpace=wrap;html=1;" parent="IKLXo63j13k46SLplKar-1" vertex="1">
          <mxGeometry x="315" y="313.5" width="120" height="60" as="geometry"/>
        </mxCell>
        <mxCell id="IKLXo63j13k46SLplKar-5" value="&lt;span&gt;Linked Data Container&lt;/span&gt;" style="shape=cylinder;whiteSpace=wrap;html=1;boundedLbl=1;backgroundOutline=1;" parent="IKLXo63j13k46SLplKar-1" vertex="1">
          <mxGeometry x="165" y="313.5" width="90" height="60" as="geometry"/>
        </mxCell>
        <mxCell id="IKLXo63j13k46SLplKar-6" value="&lt;span&gt;Integration&lt;br&gt;Configuration&lt;/span&gt;" style="shape=cylinder;whiteSpace=wrap;html=1;boundedLbl=1;backgroundOutline=1;" parent="IKLXo63j13k46SLplKar-1" vertex="1">
          <mxGeometry x="301.5" y="176" width="90" height="60" as="geometry"/>
        </mxCell>
        <mxCell id="IKLXo63j13k46SLplKar-7" value="&lt;span&gt;Triple Store&lt;/span&gt;" style="shape=cylinder;whiteSpace=wrap;html=1;boundedLbl=1;backgroundOutline=1;" parent="IKLXo63j13k46SLplKar-1" vertex="1">
          <mxGeometry x="240" y="430" width="112" height="40" as="geometry"/>
        </mxCell>
        <mxCell id="IKLXo63j13k46SLplKar-8" value="KG Search/Explore&lt;br&gt;Front End" style="rounded=0;whiteSpace=wrap;html=1;" parent="IKLXo63j13k46SLplKar-1" vertex="1">
          <mxGeometry x="144" y="520.5" width="127" height="50" as="geometry"/>
        </mxCell>
        <mxCell id="IKLXo63j13k46SLplKar-9" value="Generic User" style="shape=umlActor;verticalLabelPosition=bottom;labelBackgroundColor=#ffffff;verticalAlign=top;html=1;outlineConnect=0;" parent="IKLXo63j13k46SLplKar-1" vertex="1">
          <mxGeometry x="162" y="650" width="25" height="50" as="geometry"/>
        </mxCell>
        <mxCell id="IKLXo63j13k46SLplKar-10" value="Domain Expert (e.g., Researcher)" style="shape=umlActor;verticalLabelPosition=bottom;labelBackgroundColor=#ffffff;verticalAlign=top;html=1;outlineConnect=0;" parent="IKLXo63j13k46SLplKar-1" vertex="1">
          <mxGeometry x="405" y="650" width="25" height="50" as="geometry"/>
        </mxCell>
        <mxCell id="IKLXo63j13k46SLplKar-11" value="PDFs&amp;nbsp;+ metadata" style="shape=flexArrow;endArrow=classic;html=1;entryX=0.5;entryY=0;entryDx=0;entryDy=0;" parent="IKLXo63j13k46SLplKar-1" target="IKLXo63j13k46SLplKar-3" edge="1">
          <mxGeometry x="-0.2" width="50" height="50" relative="1" as="geometry">
            <mxPoint x="180" y="130" as="sourcePoint"/>
            <mxPoint x="-130" y="600" as="targetPoint"/>
            <Array as="points"/>
            <mxPoint as="offset"/>
          </mxGeometry>
        </mxCell>
        <mxCell id="IKLXo63j13k46SLplKar-12" value="PDFs" style="shape=flexArrow;endArrow=classic;html=1;entryX=0.25;entryY=0;entryDx=0;entryDy=0;exitX=0.15;exitY=0.95;exitDx=0;exitDy=0;exitPerimeter=0;" parent="IKLXo63j13k46SLplKar-1" source="IKLXo63j13k46SLplKar-5" target="IKLXo63j13k46SLplKar-8" edge="1">
          <mxGeometry x="-0.2" width="50" height="50" relative="1" as="geometry">
            <mxPoint x="155" y="250" as="sourcePoint"/>
            <mxPoint x="154" y="323" as="targetPoint"/>
            <Array as="points"/>
            <mxPoint as="offset"/>
          </mxGeometry>
        </mxCell>
        <mxCell id="IKLXo63j13k46SLplKar-13" value="metadata as RDF" style="shape=flexArrow;endArrow=classic;html=1;entryX=0.15;entryY=0.05;entryDx=0;entryDy=0;entryPerimeter=0;" parent="IKLXo63j13k46SLplKar-1" target="IKLXo63j13k46SLplKar-7" edge="1">
          <mxGeometry x="-0.2" width="50" height="50" relative="1" as="geometry">
            <mxPoint x="230" y="372" as="sourcePoint"/>
            <mxPoint x="300" y="432" as="targetPoint"/>
            <mxPoint as="offset"/>
          </mxGeometry>
        </mxCell>
        <mxCell id="IKLXo63j13k46SLplKar-14" value="PDFs" style="shape=flexArrow;endArrow=classic;html=1;entryX=0;entryY=0.5;entryDx=0;entryDy=0;exitX=1;exitY=0.5;exitDx=0;exitDy=0;" parent="IKLXo63j13k46SLplKar-1" source="IKLXo63j13k46SLplKar-5" target="IKLXo63j13k46SLplKar-4" edge="1">
          <mxGeometry x="-0.2" width="50" height="50" relative="1" as="geometry">
            <mxPoint x="155" y="250" as="sourcePoint"/>
            <mxPoint x="154" y="323" as="targetPoint"/>
            <Array as="points"/>
            <mxPoint as="offset"/>
          </mxGeometry>
        </mxCell>
        <mxCell id="IKLXo63j13k46SLplKar-15" value="configuration&lt;br&gt;as RDF&lt;br&gt;" style="shape=flexArrow;endArrow=classic;html=1;entryX=0.25;entryY=0;entryDx=0;entryDy=0;exitX=0.5;exitY=1;exitDx=0;exitDy=0;" parent="IKLXo63j13k46SLplKar-1" source="IKLXo63j13k46SLplKar-6" target="IKLXo63j13k46SLplKar-4" edge="1">
          <mxGeometry x="-0.2" width="50" height="50" relative="1" as="geometry">
            <mxPoint x="361" y="178.5" as="sourcePoint"/>
            <mxPoint x="360" y="251.5" as="targetPoint"/>
            <Array as="points"/>
            <mxPoint as="offset"/>
          </mxGeometry>
        </mxCell>
        <mxCell id="IKLXo63j13k46SLplKar-16" value="semantics as RDF" style="shape=flexArrow;endArrow=classic;html=1;exitX=0.5;exitY=1;exitDx=0;exitDy=0;entryX=0.85;entryY=0.05;entryDx=0;entryDy=0;entryPerimeter=0;" parent="IKLXo63j13k46SLplKar-1" source="IKLXo63j13k46SLplKar-4" target="IKLXo63j13k46SLplKar-7" edge="1">
          <mxGeometry x="-0.2" width="50" height="50" relative="1" as="geometry">
            <mxPoint x="185" y="380" as="sourcePoint"/>
            <mxPoint x="453" y="432" as="targetPoint"/>
            <Array as="points"/>
            <mxPoint as="offset"/>
          </mxGeometry>
        </mxCell>
        <mxCell id="IKLXo63j13k46SLplKar-17" value="KG as RDF&lt;br&gt;" style="shape=flexArrow;endArrow=classic;html=1;entryX=0.75;entryY=0;entryDx=0;entryDy=0;exitX=0.15;exitY=0.95;exitDx=0;exitDy=0;exitPerimeter=0;" parent="IKLXo63j13k46SLplKar-1" source="IKLXo63j13k46SLplKar-7" target="IKLXo63j13k46SLplKar-8" edge="1">
          <mxGeometry x="-0.2" width="50" height="50" relative="1" as="geometry">
            <mxPoint x="489" y="580" as="sourcePoint"/>
            <mxPoint x="451" y="683" as="targetPoint"/>
            <mxPoint as="offset"/>
          </mxGeometry>
        </mxCell>
        <mxCell id="IKLXo63j13k46SLplKar-18" value="KG as RDF&lt;br&gt;" style="shape=flexArrow;endArrow=classic;html=1;exitX=1;exitY=0.5;exitDx=0;exitDy=0;entryX=0.07;entryY=0.4;entryDx=0;entryDy=0;entryPerimeter=0;" parent="IKLXo63j13k46SLplKar-1" source="IKLXo63j13k46SLplKar-7" target="IKLXo63j13k46SLplKar-22" edge="1">
          <mxGeometry x="-0.2" width="50" height="50" relative="1" as="geometry">
            <mxPoint x="244" y="647" as="sourcePoint"/>
            <mxPoint x="580" y="614" as="targetPoint"/>
            <mxPoint as="offset"/>
          </mxGeometry>
        </mxCell>
        <mxCell id="IKLXo63j13k46SLplKar-19" value="KG interaction" style="shape=flexArrow;endArrow=classic;startArrow=classic;html=1;entryX=0.25;entryY=1;entryDx=0;entryDy=0;" parent="IKLXo63j13k46SLplKar-1" target="IKLXo63j13k46SLplKar-8" edge="1">
          <mxGeometry width="50" height="50" relative="1" as="geometry">
            <mxPoint x="176" y="640" as="sourcePoint"/>
            <mxPoint x="60" y="750" as="targetPoint"/>
          </mxGeometry>
        </mxCell>
        <mxCell id="IKLXo63j13k46SLplKar-20" value="KG interaction" style="shape=flexArrow;endArrow=classic;startArrow=classic;html=1;entryX=0.75;entryY=1;entryDx=0;entryDy=0;edgeStyle=orthogonalEdgeStyle;" parent="IKLXo63j13k46SLplKar-1" target="IKLXo63j13k46SLplKar-8" edge="1">
          <mxGeometry width="50" height="50" relative="1" as="geometry">
            <mxPoint x="400" y="650" as="sourcePoint"/>
            <mxPoint x="230" y="820" as="targetPoint"/>
            <Array as="points">
              <mxPoint x="400" y="610"/>
              <mxPoint x="239" y="610"/>
            </Array>
          </mxGeometry>
        </mxCell>
        <mxCell id="IKLXo63j13k46SLplKar-21" value="" style="group" parent="IKLXo63j13k46SLplKar-1" vertex="1" connectable="0">
          <mxGeometry x="443.5" y="414.5" width="160" height="93" as="geometry"/>
        </mxCell>
        <mxCell id="IKLXo63j13k46SLplKar-22" value="Semantic Web Tools" style="ellipse;shape=cloud;whiteSpace=wrap;html=1;" parent="IKLXo63j13k46SLplKar-21" vertex="1">
          <mxGeometry width="160" height="93" as="geometry"/>
        </mxCell>
        <mxCell id="IKLXo63j13k46SLplKar-23" value="" style="shape=mxgraph.bpmn.service_task;html=1;outlineConnect=0;" parent="IKLXo63j13k46SLplKar-21" vertex="1">
          <mxGeometry x="57.77777777777777" y="15.76271186440678" width="21.333333333333332" height="21.279661016949152" as="geometry"/>
        </mxCell>
        <mxCell id="IKLXo63j13k46SLplKar-24" value="" style="shape=mxgraph.bpmn.service_task;html=1;outlineConnect=0;" parent="IKLXo63j13k46SLplKar-21" vertex="1">
          <mxGeometry x="98.66666666666666" y="52.41101694915254" width="21.333333333333332" height="21.279661016949152" as="geometry"/>
        </mxCell>
        <mxCell id="IKLXo63j13k46SLplKar-25" value="" style="shape=mxgraph.bpmn.service_task;html=1;outlineConnect=0;" parent="IKLXo63j13k46SLplKar-21" vertex="1">
          <mxGeometry x="57.77777777777777" y="52.41101694915254" width="21.333333333333332" height="21.279661016949152" as="geometry"/>
        </mxCell>
        <mxCell id="IKLXo63j13k46SLplKar-26" value="" style="group" parent="IKLXo63j13k46SLplKar-1" vertex="1" connectable="0">
          <mxGeometry x="315" y="501.5" width="191" height="121" as="geometry"/>
        </mxCell>
        <mxCell id="IKLXo63j13k46SLplKar-27" value="External Triple Stores" style="ellipse;shape=cloud;whiteSpace=wrap;html=1;" parent="IKLXo63j13k46SLplKar-26" vertex="1">
          <mxGeometry width="180.54726368159203" height="100" as="geometry"/>
        </mxCell>
        <mxCell id="IKLXo63j13k46SLplKar-28" value="" style="shape=cylinder;whiteSpace=wrap;html=1;boundedLbl=1;backgroundOutline=1;" parent="IKLXo63j13k46SLplKar-26" vertex="1">
          <mxGeometry x="52.73880597014925" y="21" width="33.25870646766169" height="20" as="geometry"/>
        </mxCell>
        <mxCell id="IKLXo63j13k46SLplKar-29" value="" style="shape=cylinder;whiteSpace=wrap;html=1;boundedLbl=1;backgroundOutline=1;" parent="IKLXo63j13k46SLplKar-26" vertex="1">
          <mxGeometry x="76.4950248756219" y="62" width="33.25870646766169" height="20" as="geometry"/>
        </mxCell>
        <mxCell id="IKLXo63j13k46SLplKar-30" value="" style="shape=cylinder;whiteSpace=wrap;html=1;boundedLbl=1;backgroundOutline=1;" parent="IKLXo63j13k46SLplKar-26" vertex="1">
          <mxGeometry x="116.40547263681592" y="23" width="33.25870646766169" height="20" as="geometry"/>
        </mxCell>
        <mxCell id="IKLXo63j13k46SLplKar-31" value="" style="shape=flexArrow;endArrow=classic;html=1;entryX=1;entryY=0.5;entryDx=0;entryDy=0;exitX=0.07;exitY=0.4;exitDx=0;exitDy=0;exitPerimeter=0;" parent="IKLXo63j13k46SLplKar-1" source="IKLXo63j13k46SLplKar-27" target="IKLXo63j13k46SLplKar-8" edge="1">
          <mxGeometry x="-0.2" width="50" height="50" relative="1" as="geometry">
            <mxPoint x="244" y="647" as="sourcePoint"/>
            <mxPoint x="230" y="770" as="targetPoint"/>
            <Array as="points"/>
            <mxPoint as="offset"/>
          </mxGeometry>
        </mxCell>
        <mxCell id="IKLXo63j13k46SLplKar-32" value="" style="shape=flexArrow;endArrow=classic;html=1;entryX=0.108;entryY=0.661;entryDx=0;entryDy=0;entryPerimeter=0;exitX=0.625;exitY=0.2;exitDx=0;exitDy=0;exitPerimeter=0;" parent="IKLXo63j13k46SLplKar-1" source="IKLXo63j13k46SLplKar-27" target="IKLXo63j13k46SLplKar-22" edge="1">
          <mxGeometry x="-0.2" width="50" height="50" relative="1" as="geometry">
            <mxPoint x="455" y="666" as="sourcePoint"/>
            <mxPoint x="580" y="774" as="targetPoint"/>
            <Array as="points"/>
            <mxPoint as="offset"/>
          </mxGeometry>
        </mxCell>
        <mxCell id="IKLXo63j13k46SLplKar-33" value="queries and&lt;br&gt;manipulation" style="shape=flexArrow;endArrow=classic;startArrow=classic;html=1;entryX=0.55;entryY=0.95;entryDx=0;entryDy=0;entryPerimeter=0;edgeStyle=orthogonalEdgeStyle;" parent="IKLXo63j13k46SLplKar-1" target="IKLXo63j13k46SLplKar-22" edge="1">
          <mxGeometry x="0.3556" width="50" height="50" relative="1" as="geometry">
            <mxPoint x="440" y="650" as="sourcePoint"/>
            <mxPoint x="262" y="820" as="targetPoint"/>
            <Array as="points">
              <mxPoint x="440" y="610"/>
              <mxPoint x="532" y="610"/>
            </Array>
            <mxPoint as="offset"/>
          </mxGeometry>
        </mxCell>
        <mxCell id="IKLXo63j13k46SLplKar-34" value="" style="group" parent="IKLXo63j13k46SLplKar-1" vertex="1" connectable="0">
          <mxGeometry x="413" y="159" width="147" height="100" as="geometry"/>
        </mxCell>
        <mxCell id="IKLXo63j13k46SLplKar-35" value="" style="group" parent="IKLXo63j13k46SLplKar-34" vertex="1" connectable="0">
          <mxGeometry width="147" height="100" as="geometry"/>
        </mxCell>
        <mxCell id="IKLXo63j13k46SLplKar-36" value="Service&lt;br&gt;Descriptions" style="ellipse;shape=cloud;whiteSpace=wrap;html=1;" parent="IKLXo63j13k46SLplKar-35" vertex="1">
          <mxGeometry width="143.96907216494844" height="100" as="geometry"/>
        </mxCell>
        <mxCell id="IKLXo63j13k46SLplKar-37" value="" style="shape=cylinder;whiteSpace=wrap;html=1;boundedLbl=1;backgroundOutline=1;" parent="IKLXo63j13k46SLplKar-35" vertex="1">
          <mxGeometry x="22.67751095746651" y="31.48148148148148" width="26.52061855670103" height="18.51851851851852" as="geometry"/>
        </mxCell>
        <mxCell id="IKLXo63j13k46SLplKar-38" value="" style="shape=cylinder;whiteSpace=wrap;html=1;boundedLbl=1;backgroundOutline=1;" parent="IKLXo63j13k46SLplKar-35" vertex="1">
          <mxGeometry x="65.92268041237114" y="65.27777777777777" width="26.52061855670103" height="18.51851851851852" as="geometry"/>
        </mxCell>
        <mxCell id="IKLXo63j13k46SLplKar-39" value="" style="shape=cylinder;whiteSpace=wrap;html=1;boundedLbl=1;backgroundOutline=1;" parent="IKLXo63j13k46SLplKar-35" vertex="1">
          <mxGeometry x="90.92783505154638" y="23.14814814814815" width="26.52061855670103" height="18.51851851851852" as="geometry"/>
        </mxCell>
        <mxCell id="IKLXo63j13k46SLplKar-40" value="" style="group" parent="IKLXo63j13k46SLplKar-1" vertex="1" connectable="0">
          <mxGeometry x="479" y="310" width="132" height="95" as="geometry"/>
        </mxCell>
        <mxCell id="IKLXo63j13k46SLplKar-41" value="Semantic&lt;br&gt;Enrichment&lt;br&gt;Services" style="ellipse;shape=cloud;whiteSpace=wrap;html=1;" parent="IKLXo63j13k46SLplKar-40" vertex="1">
          <mxGeometry width="120" height="80" as="geometry"/>
        </mxCell>
        <mxCell id="IKLXo63j13k46SLplKar-43" value="" style="shape=mxgraph.bpmn.service_task;html=1;outlineConnect=0;" parent="IKLXo63j13k46SLplKar-40" vertex="1">
          <mxGeometry x="92.48529522660434" y="39.89705882352941" width="17.797752808988765" height="23.53211009174312" as="geometry"/>
        </mxCell>
        <mxCell id="IKLXo63j13k46SLplKar-44" value="" style="shape=mxgraph.bpmn.service_task;html=1;outlineConnect=0;" parent="IKLXo63j13k46SLplKar-40" vertex="1">
          <mxGeometry x="15.320714878214314" y="47.57843137254902" width="17.797752808988765" height="23.53211009174312" as="geometry"/>
        </mxCell>
        <mxCell id="IKLXo63j13k46SLplKar-45" value="" style="shape=flexArrow;endArrow=classic;startArrow=classic;html=1;exitX=1;exitY=0.5;exitDx=0;exitDy=0;entryX=0.07;entryY=0.4;entryDx=0;entryDy=0;entryPerimeter=0;" parent="IKLXo63j13k46SLplKar-1" source="IKLXo63j13k46SLplKar-4" target="IKLXo63j13k46SLplKar-41" edge="1">
          <mxGeometry width="50" height="50" relative="1" as="geometry">
            <mxPoint x="470" y="930" as="sourcePoint"/>
            <mxPoint x="590" y="360" as="targetPoint"/>
          </mxGeometry>
        </mxCell>
        <mxCell id="IKLXo63j13k46SLplKar-46" value="service descriptions&lt;br&gt;as RDF&lt;br&gt;" style="shape=flexArrow;endArrow=classic;html=1;exitX=0.31;exitY=0.8;exitDx=0;exitDy=0;exitPerimeter=0;entryX=0.75;entryY=0;entryDx=0;entryDy=0;" parent="IKLXo63j13k46SLplKar-1" source="IKLXo63j13k46SLplKar-36" target="IKLXo63j13k46SLplKar-4" edge="1">
          <mxGeometry x="-0.2465" y="10" width="50" height="50" relative="1" as="geometry">
            <mxPoint x="345" y="490" as="sourcePoint"/>
            <mxPoint x="470" y="310" as="targetPoint"/>
            <Array as="points"/>
            <mxPoint as="offset"/>
          </mxGeometry>
        </mxCell>
        <mxCell id="IKLXo63j13k46SLplKar-47" value="Data Expert" style="shape=umlActor;verticalLabelPosition=bottom;labelBackgroundColor=#ffffff;verticalAlign=top;html=1;outlineConnect=0;" parent="IKLXo63j13k46SLplKar-1" vertex="1">
          <mxGeometry x="403" y="50" width="26" height="51" as="geometry"/>
        </mxCell>
        <mxCell id="IKLXo63j13k46SLplKar-48" value="Service Provider" style="shape=umlActor;verticalLabelPosition=bottom;labelBackgroundColor=#ffffff;verticalAlign=top;html=1;outlineConnect=0;" parent="IKLXo63j13k46SLplKar-1" vertex="1">
          <mxGeometry x="526" y="54" width="24" height="47" as="geometry"/>
        </mxCell>
        <mxCell id="IKLXo63j13k46SLplKar-49" value="configuration" style="shape=flexArrow;endArrow=classic;html=1;entryX=0.5;entryY=0;entryDx=0;entryDy=0;" parent="IKLXo63j13k46SLplKar-1" target="IKLXo63j13k46SLplKar-6" edge="1">
          <mxGeometry x="-0.5511" width="50" height="50" relative="1" as="geometry">
            <mxPoint x="380" y="120" as="sourcePoint"/>
            <mxPoint x="187" y="200" as="targetPoint"/>
            <Array as="points"/>
            <mxPoint as="offset"/>
          </mxGeometry>
        </mxCell>
        <mxCell id="IKLXo63j13k46SLplKar-50" value="service description" style="shape=flexArrow;endArrow=classic;html=1;entryX=0.88;entryY=0.25;entryDx=0;entryDy=0;entryPerimeter=0;" parent="IKLXo63j13k46SLplKar-1" target="IKLXo63j13k46SLplKar-36" edge="1">
          <mxGeometry x="-0.2" width="50" height="50" relative="1" as="geometry">
            <mxPoint x="540" y="130" as="sourcePoint"/>
            <mxPoint x="640" y="170" as="targetPoint"/>
            <Array as="points"/>
            <mxPoint as="offset"/>
          </mxGeometry>
        </mxCell>
        <mxCell id="IKLXo63j13k46SLplKar-51" value="service description" style="shape=flexArrow;endArrow=classic;html=1;entryX=0.25;entryY=0.25;entryDx=0;entryDy=0;entryPerimeter=0;" parent="IKLXo63j13k46SLplKar-1" target="IKLXo63j13k46SLplKar-36" edge="1">
          <mxGeometry x="-0.2" width="50" height="50" relative="1" as="geometry">
            <mxPoint x="440" y="130" as="sourcePoint"/>
            <mxPoint x="570" y="295" as="targetPoint"/>
            <Array as="points"/>
            <mxPoint as="offset"/>
          </mxGeometry>
        </mxCell>
        <mxCell id="IKLXo63j13k46SLplKar-52" value="&lt;span&gt;Legacy Systems&lt;/span&gt;" style="shape=cylinder;whiteSpace=wrap;html=1;boundedLbl=1;backgroundOutline=1;" parent="IKLXo63j13k46SLplKar-1" vertex="1">
          <mxGeometry x="245.5" y="90" width="90" height="60" as="geometry"/>
        </mxCell>
        <mxCell id="IKLXo63j13k46SLplKar-53" value="PDFs&amp;nbsp;+&lt;br&gt;metadata as RDF" style="shape=flexArrow;endArrow=classic;html=1;entryX=0.15;entryY=0.05;entryDx=0;entryDy=0;exitX=0.5;exitY=1;exitDx=0;exitDy=0;entryPerimeter=0;" parent="IKLXo63j13k46SLplKar-1" source="IKLXo63j13k46SLplKar-3" target="IKLXo63j13k46SLplKar-5" edge="1">
          <mxGeometry x="-0.2" width="50" height="50" relative="1" as="geometry">
            <mxPoint x="187" y="140" as="sourcePoint"/>
            <mxPoint x="187" y="200" as="targetPoint"/>
            <Array as="points"/>
            <mxPoint as="offset"/>
          </mxGeometry>
        </mxCell>
        <mxCell id="IKLXo63j13k46SLplKar-54" value="PDFs&amp;nbsp;+&lt;br&gt;metadata as RDF" style="shape=flexArrow;endArrow=classic;html=1;entryX=0.85;entryY=0.05;entryDx=0;entryDy=0;entryPerimeter=0;" parent="IKLXo63j13k46SLplKar-1" source="IKLXo63j13k46SLplKar-52" target="IKLXo63j13k46SLplKar-5" edge="1">
          <mxGeometry x="0.1656" y="11" width="50" height="50" relative="1" as="geometry">
            <mxPoint x="187" y="250" as="sourcePoint"/>
            <mxPoint x="187" y="320" as="targetPoint"/>
            <Array as="points"/>
            <mxPoint as="offset"/>
          </mxGeometry>
        </mxCell>
      </root>
    </mxGraphModel>
  </diagram>
</mxfile>
